<svg width="48" height="43" viewBox="0 0 48 43" fill="none" xmlns="http://www.w3.org/2000/svg">
<path fill-rule="evenodd" clip-rule="evenodd" d="M10.5489 17.8513C10 18.8956 10 20.0836 10 22.4597V29.8804C10 33.1802 10 34.8301 11.1716 35.8553C12.3431 36.8804 14.2288 36.8804 18 36.8804L18 28.1305C18 26.4905 19.4728 25.3805 21 25.3805H27C28.5272 25.3805 30 26.4905 30 28.1305V36.8804C33.7712 36.8804 35.6569 36.8804 36.8284 35.8553C38 34.8301 38 33.1802 38 29.8804V22.4597C38 20.0836 38 18.8956 37.4511 17.8513C36.9022 16.807 35.8713 16.0338 33.8095 14.4875L31.8095 12.9875C28.0829 10.1925 26.2195 8.79504 24 8.79504C21.7805 8.79504 19.9171 10.1925 16.1905 12.9875L14.1905 14.4875C12.1287 16.0338 11.0978 16.807 10.5489 17.8513ZM28 36.8804V28.1305C28 27.8375 27.6819 27.3805 27 27.3805H21C20.3181 27.3805 20 27.8375 20 28.1305V36.8804H28Z" fill="#222222"/>
</svg>
