<svg width="48" height="46" viewBox="0 0 48 46" fill="none" xmlns="http://www.w3.org/2000/svg">
<path d="M32 15.3333V13.75C32 10.9497 32 9.54961 31.455 8.48005C30.9757 7.53924 30.2108 6.77433 29.27 6.29497C28.2004 5.75 26.8003 5.75 24 5.75V5.75C21.1997 5.75 19.7996 5.75 18.73 6.29497C17.7892 6.77433 17.0243 7.53924 16.545 8.48005C16 9.54961 16 10.9497 16 13.75V15.3333" stroke="#222222" stroke-width="2" stroke-linecap="round"/>
<path fill-rule="evenodd" clip-rule="evenodd" d="M6.87868 14.2954C6 15.1741 6 16.5883 6 19.4167V34.1667C6 37.938 6 39.8236 7.17157 40.9952C8.34315 42.1667 10.2288 42.1667 14 42.1667H34C37.7712 42.1667 39.6569 42.1667 40.8284 40.9952C42 39.8236 42 37.938 42 34.1667V19.4167C42 16.5883 42 15.1741 41.1213 14.2954C40.2426 13.4167 38.8284 13.4167 36 13.4167H12C9.17157 13.4167 7.75736 13.4167 6.87868 14.2954ZM24 30.5834C26.2902 30.5834 28 28.8251 28 26.8334C28 24.8417 26.2902 23.0834 24 23.0834C21.7098 23.0834 20 24.8417 20 26.8334C20 28.8251 21.7098 30.5834 24 30.5834ZM30 26.8334C30 29.6825 27.8377 32.0477 25 32.5039V36.4167H23V32.5039C20.1623 32.0477 18 29.6825 18 26.8334C18 23.6578 20.6863 21.0834 24 21.0834C27.3137 21.0834 30 23.6578 30 26.8334Z" fill="#222222"/>
</svg>
