<svg width="150" height="150" viewBox="0 0 150 150" fill="none" xmlns="http://www.w3.org/2000/svg">
<path d="M140 75V95C140 96.3261 139.473 97.5979 138.536 98.5355C137.598 99.4732 136.326 100 135 100C133.674 100 132.402 99.4732 131.464 98.5355C130.527 97.5979 130 96.3261 130 95C130 95 130.6 90 120 90H110V115C110 116.326 109.473 117.598 108.536 118.536C107.598 119.473 106.326 120 105 120H25C23.6739 120 22.4021 119.473 21.4645 118.536C20.5268 117.598 20 116.326 20 115V75C20 73.6739 20.5268 72.4021 21.4645 71.4645C22.4021 70.5268 23.6739 70 25 70H105C106.326 70 107.598 70.5268 108.536 71.4645C109.473 72.4021 110 73.6739 110 75V80H120C130.6 80 130 75 130 75C130 73.6739 130.527 72.4021 131.464 71.4645C132.402 70.5268 133.674 70 135 70C136.326 70 137.598 70.5268 138.536 71.4645C139.473 72.4021 140 73.6739 140 75ZM40 30C34.6957 30 29.6086 32.1071 25.8579 35.8579C22.1071 39.6086 20 44.6957 20 50C20 55.3043 22.1071 60.3914 25.8579 64.1421C29.6086 67.8929 34.6957 70 40 70C45.3043 70 50.3914 67.8929 54.1421 64.1421C57.8929 60.3914 60 55.3043 60 50C60 44.6957 57.8929 39.6086 54.1421 35.8579C50.3914 32.1071 45.3043 30 40 30ZM40 60C37.3478 60 34.8043 58.9464 32.9289 57.0711C31.0536 55.1957 30 52.6522 30 50C30 47.3478 31.0536 44.8043 32.9289 42.9289C34.8043 41.0536 37.3478 40 40 40C42.6522 40 45.1957 41.0536 47.0711 42.9289C48.9464 44.8043 50 47.3478 50 50C50 52.6522 48.9464 55.1957 47.0711 57.0711C45.1957 58.9464 42.6522 60 40 60ZM85 20C78.3696 20 72.0107 22.6339 67.3223 27.3223C62.6339 32.0107 60 38.3696 60 45C60 51.6304 62.6339 57.9893 67.3223 62.6777C72.0107 67.3661 78.3696 70 85 70C91.6304 70 97.9893 67.3661 102.678 62.6777C107.366 57.9893 110 51.6304 110 45C110 38.3696 107.366 32.0107 102.678 27.3223C97.9893 22.6339 91.6304 20 85 20ZM85 60C81.0218 60 77.2064 58.4197 74.3934 55.6066C71.5803 52.7936 70 48.9782 70 45C70 41.0218 71.5803 37.2064 74.3934 34.3934C77.2064 31.5804 81.0218 30 85 30C88.9782 30 92.7936 31.5804 95.6066 34.3934C98.4196 37.2064 100 41.0218 100 45C100 48.9782 98.4196 52.7936 95.6066 55.6066C92.7936 58.4197 88.9782 60 85 60Z" fill="white"/>
</svg>
