<svg width="48" height="48" viewBox="0 0 48 48" fill="none" xmlns="http://www.w3.org/2000/svg">
<path fill-rule="evenodd" clip-rule="evenodd" d="M6.00174 14.9998C6.16578 15 6.33209 15.0405 6.48564 15.1258L24 24.856L41.5144 15.1258C41.6679 15.0405 41.8342 15 41.9983 14.9998C41.9861 12.8249 41.8897 11.647 41.1213 10.8787C40.2426 10 38.8284 10 36 10H12C9.17157 10 7.75736 10 6.87868 10.8787C6.11032 11.647 6.01385 12.8249 6.00174 14.9998ZM42 17.144L24.9713 26.6044C24.3672 26.9399 23.6328 26.9399 23.0287 26.6044L6 17.144V32C6 34.8284 6 36.2426 6.87868 37.1213C7.75736 38 9.17157 38 12 38H36C38.8284 38 40.2426 38 41.1213 37.1213C42 36.2426 42 34.8284 42 32V17.144Z" fill="#222222"/>
</svg>
