<svg width="48" height="46" viewBox="0 0 48 46" fill="none" xmlns="http://www.w3.org/2000/svg">
<path d="M6 23C6 13.4731 13.7231 5.75 23.25 5.75H24.75C34.2769 5.75 42 13.4731 42 23C42 32.5269 34.2769 40.25 24.75 40.25H23.25C13.7231 40.25 6 32.5269 6 23Z" fill="#2A4157" fill-opacity="0.24"/>
<ellipse cx="24" cy="19.1667" rx="8" ry="7.66667" fill="#222222"/>
<path fill-rule="evenodd" clip-rule="evenodd" d="M36.617 35.2599C36.6747 35.3581 36.6562 35.4828 36.5733 35.5608C33.4856 38.4683 29.3258 40.25 24.75 40.25H23.25C18.6742 40.25 14.5146 38.4684 11.4269 35.561C11.344 35.4829 11.3255 35.3583 11.3832 35.26C13.6452 31.4079 18.4448 28.75 24.0001 28.75C29.5554 28.75 34.3549 31.4078 36.617 35.2599Z" fill="#222222"/>
<path fill-rule="evenodd" clip-rule="evenodd" d="M36.6169 35.2599C36.6746 35.3581 36.6561 35.4828 36.5731 35.5608C33.4854 38.4683 29.3257 40.25 24.7499 40.25H23.2499C18.6741 40.25 14.5145 38.4684 11.4268 35.561C11.3438 35.4829 11.3254 35.3583 11.383 35.26C13.6451 31.4079 18.4447 28.75 24 28.75C29.5553 28.75 34.3548 31.4078 36.6169 35.2599Z" fill="#222222"/>
</svg>
